<svg width="79" height="26" viewBox="0 0 79 26" fill="none" xmlns="http://www.w3.org/2000/svg">
<path d="M8.47401 19.2818H3.54551L2.36193 22.6967H0.274414L4.94261 10.0625H7.11147L11.7797 22.6967H9.65655L8.47401 19.2818ZM4.05594 17.706H7.96259L6.03675 12.1639H5.98285L4.05594 17.706Z" fill="white"/>
<path d="M21.8613 18.091C21.8613 20.9534 20.2934 22.7925 17.9273 22.7925C17.3279 22.8231 16.7318 22.6882 16.2072 22.4032C15.6827 22.1182 15.2508 21.6946 14.9612 21.1809H14.9164V25.7434H12.9814V13.4848H14.8544V15.0169H14.89C15.193 14.5057 15.6321 14.0843 16.1607 13.7975C16.6892 13.5108 17.2874 13.3694 17.8917 13.3884C20.2842 13.3884 21.8613 15.2364 21.8613 18.091ZM19.8724 18.091C19.8724 16.226 18.8861 15 17.3812 15C15.9028 15 14.9083 16.2519 14.9083 18.091C14.9083 19.9469 15.9028 21.1899 17.3812 21.1899C18.8861 21.1899 19.8724 19.9728 19.8724 18.091Z" fill="white"/>
<path d="M32.237 18.0909C32.237 20.9534 30.6691 22.7925 28.303 22.7925C27.7036 22.8231 27.1075 22.6882 26.583 22.4032C26.0584 22.1182 25.6266 21.6946 25.337 21.1809H25.2922V25.7434H23.3572V13.4848H25.2301V15.0169H25.2657C25.5687 14.5056 26.0078 14.0843 26.5363 13.7975C27.0649 13.5107 27.6631 13.3694 28.2674 13.3884C30.66 13.3884 32.237 15.2364 32.237 18.0909ZM30.2482 18.0909C30.2482 16.226 29.2618 15 27.757 15C26.2785 15 25.2841 16.2519 25.2841 18.0909C25.2841 19.9469 26.2785 21.1899 27.757 21.1899C29.2619 21.1899 30.2482 19.9728 30.2482 18.0909H30.2482Z" fill="white"/>
<path d="M39.0946 19.1762C39.2379 20.4291 40.4835 21.2517 42.1857 21.2517C43.8166 21.2517 44.99 20.429 44.99 19.2994C44.99 18.3187 44.2823 17.7315 42.6066 17.3291L40.9309 16.9347C38.5567 16.3743 37.4544 15.2893 37.4544 13.5287C37.4544 11.3489 39.3986 9.85156 42.1592 9.85156C44.8914 9.85156 46.7644 11.3489 46.8274 13.5287H44.8741C44.7572 12.2679 43.6905 11.5068 42.1318 11.5068C40.573 11.5068 39.5063 12.2769 39.5063 13.3976C39.5063 14.2908 40.1876 14.8164 41.8542 15.2188L43.2787 15.5605C45.9316 16.1736 47.0338 17.2149 47.0338 19.0629C47.0338 21.4265 45.1069 22.9069 42.0423 22.9069C39.1748 22.9069 37.2388 21.4613 37.1138 19.1761L39.0946 19.1762Z" fill="white"/>
<path d="M51.2097 11.3047V13.4846H53.0023V14.9819H51.2097V20.06C51.2097 20.8488 51.5686 21.2165 52.3567 21.2165C52.5695 21.2128 52.782 21.1982 52.9932 21.1727V22.6611C52.6389 22.7258 52.2788 22.7551 51.9184 22.7485C50.0099 22.7485 49.2656 22.048 49.2656 20.2616V14.9819H47.8949V13.4846H49.2655V11.3047H51.2097Z" fill="white"/>
<path d="M54.0405 18.0905C54.0405 15.1923 55.7874 13.3711 58.5115 13.3711C61.2447 13.3711 62.9834 15.1923 62.9834 18.0905C62.9834 20.9967 61.2538 22.8099 58.5115 22.8099C55.7701 22.8099 54.0405 20.9967 54.0405 18.0905ZM61.0118 18.0905C61.0118 16.1024 60.0794 14.929 58.5115 14.929C56.9435 14.929 56.0121 16.1113 56.0121 18.0905C56.0121 20.0866 56.9435 21.251 58.5115 21.251C60.0794 21.251 61.0118 20.0866 61.0118 18.0905H61.0118Z" fill="white"/>
<path d="M64.5787 13.4847H66.4243V15.0525H66.469C66.5939 14.5629 66.8875 14.1301 67.3004 13.8271C67.7133 13.524 68.2205 13.3691 68.7365 13.3883C68.9595 13.3876 69.1819 13.4112 69.3995 13.4589V15.2274C69.118 15.1434 68.8243 15.1048 68.5301 15.1132C68.249 15.102 67.9687 15.1504 67.7086 15.2551C67.4484 15.3598 67.2146 15.5182 67.023 15.7196C66.8314 15.9209 66.6868 16.1604 66.5988 16.4215C66.5109 16.6826 66.4819 16.9593 66.5137 17.2324V22.696H64.5787L64.5787 13.4847Z" fill="white"/>
<path d="M78.321 19.9902C78.0607 21.6624 76.3941 22.8099 74.2619 22.8099C71.5195 22.8099 69.8174 21.0146 69.8174 18.1342C69.8174 15.245 71.5287 13.3711 74.1805 13.3711C76.7887 13.3711 78.4288 15.1217 78.4288 17.9147V18.5625H71.7707V18.6767C71.74 19.0157 71.7834 19.3572 71.8981 19.6786C72.0128 19.9999 72.1962 20.2937 72.4361 20.5405C72.6759 20.7873 72.9667 20.9813 73.2893 21.1098C73.6118 21.2383 73.9586 21.2983 74.3066 21.2858C74.7639 21.3277 75.2228 21.2242 75.615 20.9908C76.0072 20.7573 76.3119 20.4064 76.4836 19.9902L78.321 19.9902ZM71.7798 17.241H76.4928C76.5101 16.9362 76.4628 16.6312 76.3539 16.3451C76.2449 16.059 76.0765 15.798 75.8594 15.5784C75.6423 15.3589 75.3811 15.1856 75.0922 15.0694C74.8033 14.9532 74.4929 14.8966 74.1805 14.9032C73.8654 14.9013 73.5531 14.9605 73.2615 15.0772C72.9699 15.194 72.7049 15.366 72.4817 15.5833C72.2585 15.8007 72.0815 16.0591 71.9611 16.3436C71.8406 16.6281 71.779 16.9331 71.7798 17.241V17.241Z" fill="white"/>
<path d="M3.81332 0.553764C4.21899 0.525318 4.62607 0.585202 5.00519 0.729097C5.38431 0.872992 5.72602 1.09731 6.00568 1.38587C6.28533 1.67444 6.49596 2.02005 6.62237 2.39778C6.74878 2.77552 6.78781 3.17596 6.73666 3.57022C6.73666 5.50965 5.66393 6.62448 3.81332 6.62448H1.56921V0.553764H3.81332ZM2.53416 5.76595H3.70553C3.99541 5.78288 4.28551 5.73643 4.5547 5.63C4.8239 5.52356 5.06542 5.35981 5.26168 5.15067C5.45795 4.94153 5.60401 4.69225 5.68925 4.42099C5.77448 4.14973 5.79674 3.86331 5.75441 3.58259C5.79367 3.30297 5.76915 3.01833 5.68261 2.74906C5.59607 2.47979 5.44964 2.23255 5.25382 2.02507C5.05801 1.81759 4.81765 1.655 4.54997 1.54895C4.2823 1.4429 3.99393 1.39601 3.70553 1.41165H2.53416V5.76595Z" fill="white"/>
<path d="M7.82674 4.33018C7.79727 4.02911 7.83252 3.72534 7.93022 3.43836C8.02793 3.15138 8.18594 2.88752 8.39413 2.66371C8.60231 2.4399 8.85607 2.26108 9.13913 2.13871C9.42218 2.01634 9.72828 1.95313 10.0378 1.95312C10.3473 1.95313 10.6534 2.01634 10.9365 2.13871C11.2195 2.26108 11.4733 2.4399 11.6815 2.66371C11.8897 2.88752 12.0477 3.15138 12.1454 3.43836C12.2431 3.72534 12.2783 4.02911 12.2489 4.33018C12.2789 4.63155 12.2441 4.93574 12.1466 5.22318C12.0492 5.51063 11.8913 5.77497 11.683 5.99922C11.4748 6.22347 11.2208 6.40267 10.9375 6.5253C10.6542 6.64794 10.3477 6.71129 10.0378 6.71129C9.72792 6.71129 9.42145 6.64794 9.13811 6.5253C8.85477 6.40267 8.60083 6.22347 8.39259 5.99922C8.18435 5.77497 8.02643 5.51063 7.92898 5.22318C7.83153 4.93574 7.79671 4.63155 7.82674 4.33018ZM11.2971 4.33018C11.2971 3.33711 10.8406 2.75638 10.0393 2.75638C9.23503 2.75638 8.78258 3.33711 8.78258 4.33019C8.78258 5.3312 9.23506 5.90746 10.0393 5.90746C10.8406 5.90745 11.2971 5.32722 11.2971 4.33018H11.2971Z" fill="white"/>
<path d="M18.127 6.62429H17.1672L16.1981 3.25014H16.1249L15.16 6.62429H14.2092L12.9169 2.04297H13.8554L14.6953 5.53878H14.7644L15.7284 2.04297H16.616L17.58 5.53878H17.6532L18.489 2.04297H19.4143L18.127 6.62429Z" fill="white"/>
<path d="M20.5014 2.04216H21.3921V2.76994H21.4612C21.5785 2.50855 21.7764 2.28943 22.0272 2.14312C22.278 1.99681 22.5692 1.9306 22.8604 1.95373C23.0885 1.93697 23.3176 1.97058 23.5306 2.05207C23.7436 2.13356 23.9352 2.26084 24.091 2.42449C24.2469 2.58813 24.363 2.78394 24.4309 2.99741C24.4988 3.21089 24.5167 3.43655 24.4832 3.65768V6.62343H23.5579V3.88473C23.5579 3.1485 23.2305 2.78237 22.5462 2.78237C22.3913 2.77532 22.2367 2.80108 22.0929 2.85788C21.9492 2.91468 21.8197 3.00118 21.7133 3.11145C21.607 3.22173 21.5263 3.35316 21.4768 3.49675C21.4274 3.64034 21.4102 3.79268 21.4266 3.94334V6.62348H20.5013L20.5014 2.04216Z" fill="white"/>
<path d="M25.9576 0.253906H26.8829V6.62363H25.9576V0.253906Z" fill="white"/>
<path d="M28.1692 4.33026C28.1398 4.02917 28.1751 3.72539 28.2728 3.4384C28.3705 3.15141 28.5286 2.88754 28.7368 2.66373C28.945 2.43991 29.1988 2.26108 29.4818 2.13871C29.7649 2.01634 30.071 1.95312 30.3806 1.95312C30.6901 1.95312 30.9962 2.01634 31.2793 2.13871C31.5624 2.26108 31.8162 2.43991 32.0244 2.66373C32.2326 2.88754 32.3906 3.15141 32.4883 3.4384C32.5861 3.72539 32.6213 4.02917 32.5919 4.33026C32.6219 4.63165 32.587 4.93584 32.4895 5.22328C32.3921 5.51072 32.2341 5.77506 32.0259 5.9993C31.8176 6.22355 31.5636 6.40274 31.2803 6.52537C30.9969 6.648 30.6905 6.71135 30.3806 6.71135C30.0707 6.71135 29.7642 6.648 29.4808 6.52537C29.1975 6.40274 28.9435 6.22355 28.7353 5.9993C28.527 5.77506 28.3691 5.51072 28.2716 5.22328C28.1741 4.93584 28.1392 4.63165 28.1692 4.33026ZM31.6396 4.33026C31.6396 3.3372 31.1831 2.75646 30.3818 2.75646C29.5775 2.75646 29.1251 3.3372 29.1251 4.33027C29.1251 5.33129 29.5776 5.90755 30.3818 5.90755C31.1831 5.90754 31.6396 5.3273 31.6396 4.33026H31.6396Z" fill="white"/>
<path d="M33.566 5.32726C33.566 4.5026 34.1944 4.02718 35.3099 3.95962L36.5799 3.88808V3.49265C36.5799 3.00878 36.2525 2.73555 35.62 2.73555C35.1035 2.73555 34.7456 2.92085 34.6428 3.24476H33.747C33.8416 2.45785 34.5991 1.95312 35.6627 1.95312C36.8382 1.95312 37.5011 2.52491 37.5011 3.49265V6.62287H36.6104V5.97904H36.5372C36.3886 6.20998 36.1799 6.39825 35.9325 6.52463C35.6851 6.651 35.4078 6.71095 35.1289 6.69835C34.9321 6.71835 34.7331 6.69783 34.5449 6.63811C34.3567 6.57839 34.1834 6.4808 34.0361 6.35162C33.8889 6.22244 33.771 6.06454 33.69 5.88811C33.609 5.71167 33.5668 5.52062 33.566 5.32726ZM36.5799 4.93579V4.55278L35.4349 4.62431C34.7893 4.66653 34.4964 4.88114 34.4964 5.28503C34.4964 5.69735 34.8625 5.9373 35.3658 5.9373C35.5133 5.95188 35.6623 5.93733 35.8039 5.89451C35.9455 5.85169 36.0769 5.78147 36.1901 5.68803C36.3034 5.59459 36.3963 5.47984 36.4632 5.35061C36.5302 5.22138 36.5699 5.08031 36.5799 4.93579Z" fill="white"/>
<path d="M38.717 4.33101C38.717 2.88339 39.4786 1.96633 40.6632 1.96633C40.9562 1.95313 41.247 2.02171 41.5017 2.16404C41.7563 2.30637 41.9641 2.51657 42.101 2.77008H42.1702V0.253906H43.0954V6.62363H42.2088V5.89982H42.1356C41.9881 6.15162 41.773 6.3592 41.5135 6.5001C41.254 6.64099 40.9599 6.70982 40.6632 6.69914C39.4705 6.69919 38.717 5.7821 38.717 4.33101ZM39.6729 4.33101C39.6729 5.30271 40.1416 5.88743 40.9256 5.88743C41.7055 5.88743 42.1875 5.29428 42.1875 4.33498C42.1875 3.38017 41.7004 2.77856 40.9256 2.77856C40.1467 2.77856 39.6728 3.36725 39.6728 4.33101H39.6729Z" fill="white"/>
<path d="M46.9238 4.33018C46.8943 4.02911 46.9296 3.72534 47.0273 3.43836C47.125 3.15138 47.283 2.88752 47.4912 2.66371C47.6994 2.4399 47.9531 2.26108 48.2362 2.13871C48.5192 2.01634 48.8253 1.95312 49.1349 1.95312C49.4444 1.95313 49.7505 2.01634 50.0335 2.13871C50.3166 2.26108 50.5703 2.4399 50.7785 2.66371C50.9867 2.88752 51.1447 3.15138 51.2424 3.43836C51.3401 3.72534 51.3754 4.02911 51.3459 4.33018C51.376 4.63155 51.3411 4.93574 51.2437 5.22318C51.1462 5.51063 50.9883 5.77497 50.7801 5.99922C50.5718 6.22347 50.3179 6.40267 50.0345 6.5253C49.7512 6.64794 49.4447 6.71129 49.1349 6.71129C48.825 6.71129 48.5185 6.64794 48.2352 6.5253C47.9518 6.40267 47.6979 6.22347 47.4896 5.99922C47.2814 5.77497 47.1235 5.51063 47.026 5.22318C46.9286 4.93574 46.8938 4.63155 46.9238 4.33018ZM50.3942 4.33018C50.3942 3.33711 49.9376 2.75638 49.1364 2.75638C48.3321 2.75638 47.8796 3.33711 47.8796 4.33019C47.8796 5.3312 48.3321 5.90746 49.1364 5.90746C49.9376 5.90745 50.3942 5.32722 50.3942 4.33018Z" fill="white"/>
<path d="M52.5875 2.04216H53.4783V2.76994H53.5474C53.6647 2.50855 53.8625 2.28943 54.1133 2.14312C54.3641 1.99681 54.6554 1.9306 54.9465 1.95373C55.1747 1.93697 55.4037 1.97058 55.6168 2.05207C55.8298 2.13356 56.0213 2.26084 56.1772 2.42449C56.333 2.58813 56.4492 2.78394 56.5171 2.99741C56.585 3.21089 56.6029 3.43655 56.5694 3.65768V6.62343H55.6441V3.88473C55.6441 3.1485 55.3167 2.78237 54.6323 2.78237C54.4775 2.77532 54.3228 2.80108 54.1791 2.85788C54.0353 2.91468 53.9059 3.00118 53.7995 3.11145C53.6932 3.22173 53.6125 3.35316 53.563 3.49675C53.5135 3.64034 53.4964 3.79268 53.5128 3.94334V6.62348H52.5875V2.04216Z" fill="white"/>
<path d="M61.7978 0.902344V2.06382H62.8136V2.82539H61.7978V5.18112C61.7978 5.66102 62.0002 5.87115 62.4608 5.87115C62.5787 5.87078 62.6965 5.86381 62.8136 5.85028V6.6034C62.6475 6.63245 62.4791 6.6479 62.3103 6.6496C61.2813 6.6496 60.8715 6.29589 60.8715 5.41262V2.82535H60.1272V2.06378H60.8715V0.902344H61.7978Z" fill="white"/>
<path d="M64.0775 0.253906H64.9947V2.77855H65.0679C65.1909 2.51472 65.3942 2.29436 65.65 2.1475C65.9058 2.00064 66.2017 1.93442 66.4975 1.95787C66.7244 1.9458 66.9513 1.98283 67.1619 2.0663C67.3725 2.14977 67.5617 2.27763 67.7159 2.44076C67.8701 2.60389 67.9856 2.79826 68.0541 3.01002C68.1226 3.22178 68.1424 3.4457 68.1122 3.6658V6.62364H67.186V3.88885C67.186 3.15709 66.8371 2.78649 66.1834 2.78649C66.0243 2.77374 65.8644 2.79511 65.7147 2.84909C65.565 2.90306 65.4291 2.98835 65.3167 3.09898C65.2043 3.20961 65.1179 3.34291 65.0637 3.48956C65.0095 3.63621 64.9887 3.79265 65.0029 3.94796V6.62362H64.0776L64.0775 0.253906Z" fill="white"/>
<path d="M73.5073 5.38596C73.3816 5.80466 73.1092 6.16684 72.7378 6.40914C72.3664 6.65143 71.9197 6.75841 71.4757 6.71137C71.1668 6.71933 70.8599 6.66152 70.5761 6.54195C70.2924 6.42237 70.0387 6.2439 69.8326 6.01891C69.6266 5.79393 69.4731 5.52782 69.3828 5.23905C69.2925 4.95029 69.2677 4.64579 69.3099 4.3467C69.2688 4.04668 69.2941 3.74152 69.3841 3.4519C69.4742 3.16227 69.6269 2.89492 69.8319 2.66797C70.0368 2.44101 70.2893 2.25974 70.5722 2.13642C70.8552 2.0131 71.1619 1.95062 71.4717 1.9532C72.7762 1.9532 73.5632 2.8241 73.5632 4.26272V4.57821H70.2525V4.62887C70.238 4.797 70.2596 4.96622 70.316 5.1257C70.3723 5.28518 70.4622 5.43139 70.5797 5.55496C70.6973 5.67853 70.84 5.77673 70.9987 5.84327C71.1573 5.9098 71.3285 5.9432 71.5011 5.94133C71.7225 5.96729 71.9467 5.92835 72.1453 5.82945C72.344 5.73055 72.508 5.57617 72.6166 5.38593L73.5073 5.38596ZM70.2525 3.90952H72.6206C72.6323 3.75577 72.6109 3.60132 72.5578 3.45612C72.5048 3.31092 72.4212 3.17817 72.3125 3.0664C72.2039 2.95463 72.0724 2.86631 71.9267 2.80712C71.781 2.74794 71.6243 2.71918 71.4665 2.72272C71.3065 2.72075 71.1477 2.75011 70.9995 2.80907C70.8512 2.86802 70.7166 2.95537 70.6034 3.06598C70.4903 3.17659 70.4009 3.30821 70.3407 3.45308C70.2804 3.59795 70.2504 3.75315 70.2525 3.90952H70.2525Z" fill="white"/>
</svg>
