<svg width="21" height="26" viewBox="0 0 21 26" fill="none" xmlns="http://www.w3.org/2000/svg">
<path d="M17.3213 13.8093C17.3339 12.8323 17.5934 11.8743 18.0757 11.0246C18.558 10.1748 19.2475 9.4608 20.0799 8.94906C19.5511 8.19385 18.8535 7.57234 18.0425 7.1339C17.2315 6.69546 16.3294 6.45217 15.4079 6.42334C13.4422 6.21701 11.5366 7.59956 10.5349 7.59956C9.51388 7.59956 7.97165 6.44382 6.31092 6.47799C5.23672 6.5127 4.18982 6.82507 3.27224 7.38467C2.35465 7.94427 1.59767 8.73202 1.07505 9.67116C-1.18884 13.5907 0.499813 19.3512 2.66843 22.5195C3.75343 24.0709 5.02149 25.8039 6.68072 25.7424C8.30437 25.6751 8.91078 24.707 10.8707 24.707C12.8124 24.707 13.3813 25.7424 15.0742 25.7033C16.8164 25.675 17.9142 24.145 18.9611 22.5789C19.7407 21.4735 20.3405 20.2517 20.7385 18.9589C19.7263 18.5308 18.8625 17.8142 18.2548 16.8984C17.6472 15.9827 17.3225 14.9084 17.3213 13.8093Z" fill="white"/>
<path d="M14.1238 4.33993C15.0738 3.19955 15.5418 1.73378 15.4284 0.253906C13.9771 0.406339 12.6365 1.09997 11.6737 2.1966C11.203 2.73233 10.8425 3.35559 10.6127 4.03074C10.383 4.70589 10.2886 5.41969 10.3349 6.13135C11.0609 6.13882 11.779 5.98148 12.4353 5.67118C13.0916 5.36088 13.6689 4.9057 14.1238 4.33993Z" fill="white"/>
</svg>
