<svg width="26" height="26" viewBox="0 0 26 26" fill="none" xmlns="http://www.w3.org/2000/svg">
<path d="M17.6826 14.18H8.27587C8.41877 17.3583 9.12341 20.2853 10.1237 22.4288C10.6855 23.6361 11.2915 24.4885 11.8533 25.0108C12.4052 25.5282 12.7846 25.612 12.9817 25.612C13.1788 25.612 13.5582 25.5282 14.1101 25.0108C14.6719 24.4885 15.278 23.6311 15.8397 22.4288C16.84 20.2853 17.5446 17.3583 17.6875 14.18H17.6826ZM8.27094 11.8148H17.6777C17.5397 8.63651 16.8351 5.70952 15.8348 3.56603C15.273 2.3637 14.6669 1.5063 14.1052 0.983977C13.5533 0.466581 13.1739 0.382812 12.9768 0.382812C12.7797 0.382812 12.4003 0.466581 11.8484 0.983977C11.2866 1.5063 10.6805 2.3637 10.1188 3.56603C9.11848 5.70952 8.41384 8.63651 8.27094 11.8148ZM5.9057 11.8148C6.07817 7.59679 7.16716 3.67936 8.75877 1.10717C4.22047 2.71356 0.879574 6.84779 0.416382 11.8148H5.9057ZM0.416382 14.18C0.879574 19.147 4.22047 23.2813 8.75877 24.8877C7.16716 22.3155 6.07817 18.398 5.9057 14.18H0.416382ZM20.0479 14.18C19.8754 18.398 18.7864 22.3155 17.1948 24.8877C21.7331 23.2763 25.074 19.147 25.5372 14.18H20.0479ZM25.5372 11.8148C25.074 6.84779 21.7331 2.71356 17.1948 1.10717C18.7864 3.67936 19.8754 7.59679 20.0479 11.8148H25.5372Z" fill="white"/>
</svg>
