<svg width="69" height="27" viewBox="0 0 69 27" fill="none" xmlns="http://www.w3.org/2000/svg">
<path d="M7.27852 3.86364C7.27852 4.63068 7.14003 5.29356 6.86304 5.85227C6.58605 6.41098 6.20608 6.84186 5.72312 7.14489C5.24017 7.44792 4.68856 7.59943 4.06829 7.59943C3.44803 7.59943 2.89642 7.44792 2.41346 7.14489C1.93051 6.84186 1.55054 6.41098 1.27355 5.85227C0.99656 5.29356 0.858066 4.63068 0.858066 3.86364C0.858066 3.09659 0.99656 2.43371 1.27355 1.875C1.55054 1.31629 1.93051 0.885417 2.41346 0.582386C2.89642 0.279356 3.44803 0.127841 4.06829 0.127841C4.68856 0.127841 5.24017 0.279356 5.72312 0.582386C6.20608 0.885417 6.58605 1.31629 6.86304 1.875C7.14003 2.43371 7.27852 3.09659 7.27852 3.86364ZM6.42625 3.86364C6.42625 3.2339 6.3209 2.70241 6.1102 2.26918C5.90186 1.83594 5.61896 1.50805 5.26147 1.28551C4.90636 1.06297 4.50863 0.951704 4.06829 0.951704C3.62795 0.951704 3.22904 1.06297 2.87156 1.28551C2.51645 1.50805 2.23354 1.83594 2.02284 2.26918C1.81451 2.70241 1.71034 3.2339 1.71034 3.86364C1.71034 4.49337 1.81451 5.02486 2.02284 5.4581C2.23354 5.89134 2.51645 6.21922 2.87156 6.44176C3.22904 6.6643 3.62795 6.77557 4.06829 6.77557C4.50863 6.77557 4.90636 6.6643 5.26147 6.44176C5.61896 6.21922 5.90186 5.89134 6.1102 5.4581C6.3209 5.02486 6.42625 4.49337 6.42625 3.86364ZM8.64571 9.54545V2.04545H9.45537V2.91193H9.5548C9.61635 2.81723 9.70158 2.6965 9.81048 2.54972C9.92175 2.40057 10.0804 2.26799 10.2863 2.15199C10.4947 2.03362 10.7764 1.97443 11.1315 1.97443C11.5908 1.97443 11.9956 2.08925 12.346 2.31889C12.6964 2.54853 12.9698 2.87405 13.1663 3.29545C13.3628 3.71686 13.461 4.21402 13.461 4.78693C13.461 5.36458 13.3628 5.86529 13.1663 6.28906C12.9698 6.71046 12.6976 7.03717 12.3495 7.26918C12.0015 7.49882 11.6003 7.61364 11.1457 7.61364C10.7953 7.61364 10.5148 7.55563 10.3041 7.43963C10.0934 7.32126 9.93122 7.1875 9.81758 7.03835C9.70395 6.88684 9.61635 6.76136 9.5548 6.66193H9.48378V9.54545H8.64571ZM9.46957 4.77273C9.46957 5.18466 9.52994 5.54806 9.65068 5.86293C9.77142 6.17543 9.94779 6.42045 10.1798 6.59801C10.4118 6.7732 10.6959 6.8608 11.0321 6.8608C11.3825 6.8608 11.6748 6.76847 11.9092 6.58381C12.1459 6.39678 12.3235 6.14583 12.4419 5.83097C12.5626 5.51373 12.623 5.16098 12.623 4.77273C12.623 4.3892 12.5638 4.04356 12.4454 3.7358C12.3294 3.42566 12.153 3.18063 11.9163 3.00071C11.6819 2.81842 11.3872 2.72727 11.0321 2.72727C10.6912 2.72727 10.4047 2.81368 10.1727 2.98651C9.94069 3.15696 9.7655 3.39607 9.64713 3.70384C9.52876 4.00923 9.46957 4.36553 9.46957 4.77273ZM17.0264 7.61364C16.5008 7.61364 16.0475 7.49763 15.6663 7.26562C15.2875 7.03125 14.9951 6.70455 14.7892 6.28551C14.5856 5.86411 14.4838 5.37405 14.4838 4.81534C14.4838 4.25663 14.5856 3.7642 14.7892 3.33807C14.9951 2.90956 15.2816 2.57576 15.6485 2.33665C16.0179 2.09517 16.4487 1.97443 16.9412 1.97443C17.2253 1.97443 17.5058 2.02178 17.7828 2.11648C18.0598 2.21117 18.3119 2.36506 18.5392 2.57812C18.7664 2.78883 18.9476 3.06818 19.0825 3.41619C19.2174 3.7642 19.2849 4.19271 19.2849 4.7017V5.05682H15.0804V4.33239H18.4326C18.4326 4.02462 18.3711 3.75 18.248 3.50852C18.1272 3.26705 17.9544 3.07647 17.7295 2.93679C17.507 2.79711 17.2442 2.72727 16.9412 2.72727C16.6074 2.72727 16.3185 2.81013 16.0747 2.97585C15.8332 3.1392 15.6474 3.35227 15.5172 3.61506C15.3869 3.87784 15.3218 4.15956 15.3218 4.46023V4.94318C15.3218 5.35511 15.3929 5.70431 15.5349 5.99077C15.6793 6.27486 15.8794 6.49148 16.1351 6.64062C16.3907 6.78741 16.6878 6.8608 17.0264 6.8608C17.2466 6.8608 17.4454 6.83002 17.623 6.76847C17.8029 6.70455 17.958 6.60985 18.0882 6.48438C18.2184 6.35653 18.319 6.19792 18.39 6.00852L19.1997 6.2358C19.1145 6.51042 18.9712 6.75189 18.77 6.96023C18.5688 7.16619 18.3202 7.32718 18.0243 7.44318C17.7283 7.55682 17.3957 7.61364 17.0264 7.61364ZM21.3978 4.21875V7.5H20.5598V2.04545H21.3694V2.89773H21.4405C21.5683 2.62074 21.7624 2.3982 22.0228 2.23011C22.2833 2.05966 22.6194 1.97443 23.0314 1.97443C23.4007 1.97443 23.7238 2.05019 24.0008 2.2017C24.2778 2.35085 24.4932 2.57812 24.6471 2.88352C24.801 3.18655 24.878 3.57008 24.878 4.03409V7.5H24.0399V4.09091C24.0399 3.66241 23.9286 3.3286 23.7061 3.08949C23.4835 2.84801 23.1781 2.72727 22.7899 2.72727C22.5224 2.72727 22.2833 2.78527 22.0726 2.90128C21.8642 3.01728 21.6997 3.18655 21.5789 3.40909C21.4582 3.63163 21.3978 3.90152 21.3978 4.21875ZM31.594 2.04545V2.75568H28.7673V2.04545H31.594ZM29.5912 0.738636H30.4293V5.9375C30.4293 6.17424 30.4636 6.3518 30.5322 6.47017C30.6033 6.58617 30.6932 6.6643 30.8021 6.70455C30.9134 6.74242 31.0306 6.76136 31.1537 6.76136C31.246 6.76136 31.3218 6.75663 31.381 6.74716C31.4402 6.73532 31.4875 6.72585 31.523 6.71875L31.6935 7.47159C31.6367 7.4929 31.5573 7.5142 31.4555 7.53551C31.3537 7.55919 31.2247 7.57102 31.0685 7.57102C30.8317 7.57102 30.5997 7.52012 30.3724 7.41832C30.1475 7.31652 29.9605 7.16146 29.8114 6.95312C29.6646 6.74479 29.5912 6.48201 29.5912 6.16477V0.738636ZM33.8099 4.21875V7.5H32.9719V0.227273H33.8099V2.89773H33.881C34.0088 2.616 34.2006 2.39228 34.4563 2.22656C34.7143 2.05848 35.0576 1.97443 35.4861 1.97443C35.8578 1.97443 36.1833 2.04901 36.4626 2.19815C36.742 2.34493 36.9586 2.57102 37.1125 2.87642C37.2688 3.17945 37.3469 3.56534 37.3469 4.03409V7.5H36.5088V4.09091C36.5088 3.65767 36.3964 3.32268 36.1715 3.08594C35.9489 2.84683 35.64 2.72727 35.2446 2.72727C34.97 2.72727 34.7238 2.78527 34.506 2.90128C34.2905 3.01728 34.1201 3.18655 33.9946 3.40909C33.8715 3.63163 33.8099 3.90152 33.8099 4.21875ZM41.167 7.61364C40.6414 7.61364 40.1881 7.49763 39.8069 7.26562C39.4281 7.03125 39.1358 6.70455 38.9298 6.28551C38.7262 5.86411 38.6244 5.37405 38.6244 4.81534C38.6244 4.25663 38.7262 3.7642 38.9298 3.33807C39.1358 2.90956 39.4222 2.57576 39.7892 2.33665C40.1585 2.09517 40.5894 1.97443 41.0818 1.97443C41.3659 1.97443 41.6464 2.02178 41.9234 2.11648C42.2004 2.21117 42.4525 2.36506 42.6798 2.57812C42.9071 2.78883 43.0882 3.06818 43.2231 3.41619C43.3581 3.7642 43.4255 4.19271 43.4255 4.7017V5.05682H39.221V4.33239H42.5733C42.5733 4.02462 42.5117 3.75 42.3886 3.50852C42.2679 3.26705 42.095 3.07647 41.8701 2.93679C41.6476 2.79711 41.3848 2.72727 41.0818 2.72727C40.748 2.72727 40.4592 2.81013 40.2153 2.97585C39.9738 3.1392 39.788 3.35227 39.6578 3.61506C39.5276 3.87784 39.4625 4.15956 39.4625 4.46023V4.94318C39.4625 5.35511 39.5335 5.70431 39.6755 5.99077C39.82 6.27486 40.02 6.49148 40.2757 6.64062C40.5314 6.78741 40.8285 6.8608 41.167 6.8608C41.3872 6.8608 41.586 6.83002 41.7636 6.76847C41.9435 6.70455 42.0986 6.60985 42.2288 6.48438C42.359 6.35653 42.4596 6.19792 42.5307 6.00852L43.3403 6.2358C43.2551 6.51042 43.1119 6.75189 42.9106 6.96023C42.7094 7.16619 42.4608 7.32718 42.1649 7.44318C41.869 7.55682 41.5363 7.61364 41.167 7.61364ZM3.89216 23.5L0.562611 11.8636H3.25011L5.17625 19.9489H5.27284L7.39784 11.8636H9.69897L11.8183 19.9659H11.9206L13.8467 11.8636H16.5342L13.2047 23.5H10.8069L8.59102 15.892H8.50011L6.28988 23.5H3.89216ZM20.8453 23.6705C19.9476 23.6705 19.1748 23.4886 18.5271 23.125C17.8832 22.7576 17.3869 22.2386 17.0385 21.5682C16.69 20.8939 16.5157 20.0966 16.5157 19.1761C16.5157 18.2784 16.69 17.4905 17.0385 16.8125C17.3869 16.1345 17.8775 15.6061 18.5101 15.2273C19.1464 14.8485 19.8926 14.6591 20.7487 14.6591C21.3244 14.6591 21.8604 14.7519 22.3566 14.9375C22.8566 15.1193 23.2923 15.3939 23.6635 15.7614C24.0385 16.1288 24.3301 16.5909 24.5385 17.1477C24.7468 17.7008 24.851 18.3485 24.851 19.0909V19.7557H17.4816V18.2557H22.5726C22.5726 17.9072 22.4968 17.5985 22.3453 17.3295C22.1938 17.0606 21.9835 16.8504 21.7146 16.6989C21.4494 16.5436 21.1407 16.4659 20.7885 16.4659C20.421 16.4659 20.0953 16.5511 19.8112 16.7216C19.5309 16.8883 19.3112 17.1136 19.1521 17.3977C18.993 17.678 18.9116 17.9905 18.9078 18.3352V19.7614C18.9078 20.1932 18.9873 20.5663 19.1464 20.8807C19.3093 21.1951 19.5385 21.4375 19.8339 21.608C20.1294 21.7784 20.4798 21.8636 20.8851 21.8636C21.154 21.8636 21.4002 21.8258 21.6237 21.75C21.8472 21.6742 22.0385 21.5606 22.1976 21.4091C22.3566 21.2576 22.4779 21.072 22.5612 20.8523L24.7998 21C24.6862 21.5379 24.4532 22.0076 24.101 22.4091C23.7525 22.8068 23.3017 23.1174 22.7487 23.3409C22.1994 23.5606 21.565 23.6705 20.8453 23.6705ZM26.476 23.5V11.8636H28.8964V16.2386H28.9703C29.0763 16.0038 29.2298 15.7652 29.4305 15.5227C29.6351 15.2765 29.9002 15.072 30.226 14.9091C30.5555 14.7424 30.9646 14.6591 31.4532 14.6591C32.0896 14.6591 32.6767 14.8258 33.2146 15.1591C33.7525 15.4886 34.1824 15.9867 34.5044 16.6534C34.8263 17.3163 34.9873 18.1477 34.9873 19.1477C34.9873 20.1212 34.8301 20.9432 34.5157 21.6136C34.2051 22.2803 33.7809 22.786 33.243 23.1307C32.7089 23.4716 32.1104 23.642 31.4476 23.642C30.9779 23.642 30.5782 23.5644 30.2487 23.4091C29.9229 23.2538 29.6559 23.0587 29.4476 22.8239C29.2392 22.5852 29.0801 22.3447 28.9703 22.1023H28.8623V23.5H26.476ZM28.8453 19.1364C28.8453 19.6553 28.9173 20.108 29.0612 20.4943C29.2051 20.8807 29.4135 21.1818 29.6862 21.3977C29.9589 21.6098 30.2904 21.7159 30.6805 21.7159C31.0744 21.7159 31.4078 21.608 31.6805 21.392C31.9532 21.1723 32.1597 20.8693 32.2998 20.483C32.4438 20.0928 32.5157 19.6439 32.5157 19.1364C32.5157 18.6326 32.4457 18.1894 32.3055 17.8068C32.1654 17.4242 31.9589 17.125 31.6862 16.9091C31.4135 16.6932 31.0782 16.5852 30.6805 16.5852C30.2866 16.5852 29.9532 16.6894 29.6805 16.8977C29.4116 17.1061 29.2051 17.4015 29.0612 17.7841C28.9173 18.1667 28.8453 18.6174 28.8453 19.1364ZM42.7941 23.6648C42.2373 23.6648 41.7411 23.5682 41.3055 23.375C40.8699 23.178 40.5252 22.8883 40.2714 22.5057C40.0214 22.1193 39.8964 21.6383 39.8964 21.0625C39.8964 20.5777 39.9854 20.1705 40.1635 19.8409C40.3415 19.5114 40.5839 19.2462 40.8907 19.0455C41.1976 18.8447 41.546 18.6932 41.9362 18.5909C42.3301 18.4886 42.743 18.4167 43.1748 18.375C43.6824 18.322 44.0915 18.2727 44.4021 18.2273C44.7127 18.178 44.9381 18.1061 45.0782 18.0114C45.2184 17.9167 45.2885 17.7765 45.2885 17.5909V17.5568C45.2885 17.197 45.1748 16.9186 44.9476 16.7216C44.7241 16.5246 44.4059 16.4261 43.993 16.4261C43.5574 16.4261 43.2108 16.5227 42.9532 16.7159C42.6957 16.9053 42.5252 17.1439 42.4419 17.4318L40.2032 17.25C40.3169 16.7197 40.5404 16.2614 40.8737 15.875C41.207 15.4848 41.6369 15.1856 42.1635 14.9773C42.6938 14.7652 43.3074 14.6591 44.0044 14.6591C44.4892 14.6591 44.9532 14.7159 45.3964 14.8295C45.8434 14.9432 46.2392 15.1193 46.5839 15.358C46.9324 15.5966 47.207 15.9034 47.4078 16.2784C47.6085 16.6496 47.7089 17.0947 47.7089 17.6136V23.5H45.4135V22.2898H45.3453C45.2051 22.5625 45.0176 22.803 44.7828 23.0114C44.5479 23.2159 44.2657 23.3769 43.9362 23.4943C43.6066 23.608 43.226 23.6648 42.7941 23.6648ZM43.4873 21.9943C43.8434 21.9943 44.1578 21.9242 44.4305 21.7841C44.7032 21.6402 44.9173 21.447 45.0726 21.2045C45.2279 20.9621 45.3055 20.6875 45.3055 20.3807V19.4545C45.2298 19.5038 45.1256 19.5492 44.993 19.5909C44.8642 19.6288 44.7184 19.6648 44.5555 19.6989C44.3926 19.7292 44.2298 19.7576 44.0669 19.7841C43.904 19.8068 43.7563 19.8277 43.6237 19.8466C43.3396 19.8883 43.0915 19.9545 42.8794 20.0455C42.6673 20.1364 42.5025 20.2595 42.3851 20.4148C42.2676 20.5663 42.2089 20.7557 42.2089 20.983C42.2089 21.3125 42.3282 21.5644 42.5669 21.7386C42.8093 21.9091 43.1161 21.9943 43.4873 21.9943ZM49.5868 26.7727V14.7727H51.9731V16.2386H52.0811C52.1871 16.0038 52.3405 15.7652 52.5413 15.5227C52.7458 15.2765 53.011 15.072 53.3368 14.9091C53.6663 14.7424 54.0754 14.6591 54.564 14.6591C55.2004 14.6591 55.7875 14.8258 56.3254 15.1591C56.8633 15.4886 57.2932 15.9867 57.6152 16.6534C57.9371 17.3163 58.0981 18.1477 58.0981 19.1477C58.0981 20.1212 57.9409 20.9432 57.6265 21.6136C57.3159 22.2803 56.8917 22.786 56.3538 23.1307C55.8197 23.4716 55.2212 23.642 54.5583 23.642C54.0887 23.642 53.689 23.5644 53.3595 23.4091C53.0337 23.2538 52.7667 23.0587 52.5583 22.8239C52.35 22.5852 52.1909 22.3447 52.0811 22.1023H52.0072V26.7727H49.5868ZM51.9561 19.1364C51.9561 19.6553 52.028 20.108 52.172 20.4943C52.3159 20.8807 52.5243 21.1818 52.797 21.3977C53.0697 21.6098 53.4012 21.7159 53.7913 21.7159C54.1852 21.7159 54.5186 21.608 54.7913 21.392C55.064 21.1723 55.2705 20.8693 55.4106 20.483C55.5546 20.0928 55.6265 19.6439 55.6265 19.1364C55.6265 18.6326 55.5565 18.1894 55.4163 17.8068C55.2762 17.4242 55.0697 17.125 54.797 16.9091C54.5243 16.6932 54.189 16.5852 53.7913 16.5852C53.3974 16.5852 53.064 16.6894 52.7913 16.8977C52.5224 17.1061 52.3159 17.4015 52.172 17.7841C52.028 18.1667 51.9561 18.6174 51.9561 19.1364ZM59.7118 26.7727V14.7727H62.0981V16.2386H62.2061C62.3121 16.0038 62.4655 15.7652 62.6663 15.5227C62.8708 15.2765 63.136 15.072 63.4618 14.9091C63.7913 14.7424 64.2004 14.6591 64.689 14.6591C65.3254 14.6591 65.9125 14.8258 66.4504 15.1591C66.9883 15.4886 67.4182 15.9867 67.7402 16.6534C68.0621 17.3163 68.2231 18.1477 68.2231 19.1477C68.2231 20.1212 68.0659 20.9432 67.7515 21.6136C67.4409 22.2803 67.0167 22.786 66.4788 23.1307C65.9447 23.4716 65.3462 23.642 64.6833 23.642C64.2137 23.642 63.814 23.5644 63.4845 23.4091C63.1587 23.2538 62.8917 23.0587 62.6833 22.8239C62.475 22.5852 62.3159 22.3447 62.2061 22.1023H62.1322V26.7727H59.7118ZM62.0811 19.1364C62.0811 19.6553 62.153 20.108 62.297 20.4943C62.4409 20.8807 62.6493 21.1818 62.922 21.3977C63.1947 21.6098 63.5262 21.7159 63.9163 21.7159C64.3102 21.7159 64.6436 21.608 64.9163 21.392C65.189 21.1723 65.3955 20.8693 65.5356 20.483C65.6796 20.0928 65.7515 19.6439 65.7515 19.1364C65.7515 18.6326 65.6815 18.1894 65.5413 17.8068C65.4012 17.4242 65.1947 17.125 64.922 16.9091C64.6493 16.6932 64.314 16.5852 63.9163 16.5852C63.5224 16.5852 63.189 16.6894 62.9163 16.8977C62.6474 17.1061 62.4409 17.4015 62.297 17.7841C62.153 18.1667 62.0811 18.6174 62.0811 19.1364Z" fill="white"/>
</svg>
